<svg width="56" height="56" viewBox="0 0 56 56" fill="none" xmlns="http://www.w3.org/2000/svg">
    <rect width="55.99" height="55.99" rx="8" fill="currentColor"/>
    <g clip-path="url(#clip0_241_1135)">
        <path d="M36.75 29.5367H29.0417V37.245C29.0417 38.093 28.3479 38.7867 27.5 38.7867C26.6521 38.7867 25.9583 38.093 25.9583 37.245V29.5367H18.25C17.4021 29.5367 16.7083 28.843 16.7083 27.995C16.7083 27.1471 17.4021 26.4534 18.25 26.4534H25.9583V18.745C25.9583 17.8971 26.6521 17.2034 27.5 17.2034C28.3479 17.2034 29.0417 17.8971 29.0417 18.745V26.4534H36.75C37.5979 26.4534 38.2917 27.1471 38.2917 27.995C38.2917 28.843 37.5979 29.5367 36.75 29.5367Z"
              fill="white"/>
    </g>
    <defs>
        <clipPath id="clip0_241_1135">
            <rect width="37" height="37" fill="white" transform="translate(9 9.49512)"/>
        </clipPath>
    </defs>
</svg>
