<svg width="42" height="42" viewBox="0 0 42 42" fill="none" xmlns="http://www.w3.org/2000/svg">
    <rect width="42" height="42" rx="8" fill="#6C63FF"/>
    <g clip-path="url(#clip0_125_799)">
        <path d="M17.7 24.9L13.8 21L17.7 17.1C18.09 16.71 18.09 16.09 17.7 15.7C17.31 15.31 16.69 15.31 16.3 15.7L11.71 20.29C11.32 20.68 11.32 21.31 11.71 21.7L16.3 26.3C16.69 26.69 17.31 26.69 17.7 26.3C18.09 25.91 18.09 25.29 17.7 24.9V24.9ZM24.3 24.9L28.2 21L24.3 17.1C23.91 16.71 23.91 16.09 24.3 15.7C24.69 15.31 25.31 15.31 25.7 15.7L30.29 20.29C30.68 20.68 30.68 21.31 30.29 21.7L25.7 26.3C25.31 26.69 24.69 26.69 24.3 26.3C23.91 25.91 23.91 25.29 24.3 24.9V24.9Z"
              fill="white"/>
    </g>
    <defs>
        <clipPath id="clip0_125_799">
            <rect width="24" height="24" fill="white" transform="translate(9 9)"/>
        </clipPath>
    </defs>
</svg>
