<svg width="48" height="48" viewBox="0 0 48 48" fill="none" xmlns="http://www.w3.org/2000/svg">
<rect width="48" height="48" rx="8" fill="currentColor"/>
<path d="M13.875 24.5625V13.875H21.1875V24.5625H13.875Z" fill="white"/>
<path d="M26.8125 17.8125V13.875H34.125V17.8125H26.8125Z" fill="white"/>
<path d="M26.8125 34.125V23.4375H34.125V34.125H26.8125Z" fill="white"/>
<path d="M13.875 34.125V30.1875H21.1875V34.125H13.875Z" fill="white"/>
<path fill-rule="evenodd" clip-rule="evenodd" d="M24.9375 12.75C24.9375 12.3358 25.2733 12 25.6875 12H35.25C35.6642 12 36 12.3358 36 12.75V18.9375C36 19.3517 35.6642 19.6875 35.25 19.6875H25.6875C25.2733 19.6875 24.9375 19.3517 24.9375 18.9375V12.75ZM26.8125 13.875V17.8125H34.125V13.875H26.8125ZM24.9375 22.3125C24.9375 21.8983 25.2733 21.5625 25.6875 21.5625H35.25C35.6642 21.5625 36 21.8983 36 22.3125V35.25C36 35.6642 35.6642 36 35.25 36H25.6875C25.2733 36 24.9375 35.6642 24.9375 35.25V22.3125ZM26.8125 23.4375V34.125H34.125V23.4375H26.8125Z" fill="white"/>
<path fill-rule="evenodd" clip-rule="evenodd" d="M22.3125 12H12.75C12.3358 12 12 12.3358 12 12.75V25.6875C12 26.1017 12.3358 26.4375 12.75 26.4375H22.3125C22.7267 26.4375 23.0625 26.1017 23.0625 25.6875V12.75C23.0625 12.3358 22.7267 12 22.3125 12ZM13.875 13.875V24.5625H21.1875V13.875H13.875Z" fill="white"/>
<path fill-rule="evenodd" clip-rule="evenodd" d="M22.3125 28.3125H12.75C12.3358 28.3125 12 28.6483 12 29.0625V35.25C12 35.6642 12.3358 36 12.75 36H22.3125C22.7267 36 23.0625 35.6642 23.0625 35.25V29.0625C23.0625 28.6483 22.7267 28.3125 22.3125 28.3125ZM13.875 30.1875V34.125H21.1875V30.1875H13.875Z" fill="white"/>
</svg>
