<svg width="24" height="24" viewBox="0 0 24 24" fill="none" xmlns="http://www.w3.org/2000/svg">
    <g clip-path="url(#clip0_191_633)">
        <rect width="24" height="24" rx="8" fill="#6C63FF"/>
        <path d="M6.9375 12.2812V6.9375H10.5938V12.2812H6.9375Z" fill="white"/>
        <path d="M13.4062 8.90625V6.9375H17.0625V8.90625H13.4062Z" fill="white"/>
        <path d="M13.4062 17.0625V11.7188H17.0625V17.0625H13.4062Z" fill="white"/>
        <path d="M6.9375 17.0625V15.0938H10.5938V17.0625H6.9375Z" fill="white"/>
        <path fill-rule="evenodd" clip-rule="evenodd"
              d="M12.4688 6.375C12.4688 6.16789 12.6366 6 12.8438 6H17.625C17.8321 6 18 6.16789 18 6.375V9.46875C18 9.67586 17.8321 9.84375 17.625 9.84375H12.8438C12.6366 9.84375 12.4688 9.67586 12.4688 9.46875V6.375ZM13.4062 6.9375V8.90625H17.0625V6.9375H13.4062ZM12.4688 11.1562C12.4688 10.9491 12.6366 10.7812 12.8438 10.7812H17.625C17.8321 10.7812 18 10.9491 18 11.1562V17.625C18 17.8321 17.8321 18 17.625 18H12.8438C12.6366 18 12.4688 17.8321 12.4688 17.625V11.1562ZM13.4062 11.7188V17.0625H17.0625V11.7188H13.4062Z"
              fill="white"/>
        <path fill-rule="evenodd" clip-rule="evenodd"
              d="M11.1562 6H6.375C6.16789 6 6 6.16789 6 6.375V12.8438C6 13.0509 6.16789 13.2188 6.375 13.2188H11.1562C11.3634 13.2188 11.5312 13.0509 11.5312 12.8438V6.375C11.5312 6.16789 11.3634 6 11.1562 6ZM6.9375 6.9375V12.2812H10.5938V6.9375H6.9375Z"
              fill="white"/>
        <path fill-rule="evenodd" clip-rule="evenodd"
              d="M11.1562 14.1562H6.375C6.16789 14.1562 6 14.3241 6 14.5312V17.625C6 17.8321 6.16789 18 6.375 18H11.1562C11.3634 18 11.5312 17.8321 11.5312 17.625V14.5312C11.5312 14.3241 11.3634 14.1562 11.1562 14.1562ZM6.9375 15.0938V17.0625H10.5938V15.0938H6.9375Z"
              fill="white"/>
    </g>
    <defs>
        <clipPath id="clip0_191_633">
            <rect width="24" height="24" rx="8" fill="white"/>
        </clipPath>
    </defs>
</svg>
