<svg width="48" height="48" viewBox="0 0 48 48" fill="none" xmlns="http://www.w3.org/2000/svg">
    <rect x="0.5" y="0.5" width="47" height="47" rx="7.5" stroke="#6C63FF"/>
    <g clip-path="url(#clip0_64_257)">
        <mask id="mask0_64_257" style="mask-type:luminance" maskUnits="userSpaceOnUse" x="12" y="12" width="24"
              height="24">
            <path d="M35.7695 21.7737H24.2556V26.3873H30.8716C30.7652 27.0403 30.5264 27.6826 30.1767 28.2683C29.776 28.9393 29.2807 29.4502 28.7729 29.8392C27.2521 31.0046 25.479 31.2429 24.2476 31.2429C21.1369 31.2429 18.479 29.2325 17.4501 26.5006C17.4086 26.4014 17.381 26.299 17.3474 26.1978C17.1201 25.5025 16.9958 24.7661 16.9958 24.0008C16.9958 23.2042 17.1304 22.4417 17.3757 21.7216C18.3432 18.8814 21.061 16.7601 24.2498 16.7601C24.8912 16.7601 25.5089 16.8364 26.0946 16.9887C27.4333 17.3367 28.3801 18.0221 28.9603 18.5643L32.4613 15.1358C30.3317 13.1832 27.5555 12 24.244 12C21.5967 11.9999 19.1525 12.8248 17.1496 14.2188C15.5253 15.3493 14.1932 16.8629 13.2941 18.6208C12.4579 20.2507 12 22.0569 12 23.999C12 25.9411 12.4586 27.7661 13.2948 29.381V29.3918C14.1781 31.1062 15.4697 32.5823 17.0396 33.7076C18.411 34.6907 20.8702 36 24.244 36C26.1842 36 27.9038 35.6502 29.4203 34.9946C30.5142 34.5217 31.4835 33.9049 32.3611 33.1122C33.5206 32.0647 34.4288 30.7691 35.0486 29.2785C35.6684 27.7878 36 26.1022 36 24.2747C36 23.4236 35.9145 22.5592 35.7695 21.7736V21.7737Z"
                  fill="white"/>
        </mask>
        <g mask="url(#mask0_64_257)">
            <g filter="url(#filter0_f_64_257)">
                <path d="M11.8234 24.0804C11.8361 25.9919 12.3808 27.9641 13.2052 29.5562V29.5672C13.8009 30.7234 14.6151 31.6367 15.5424 32.5416L21.1431 30.498C20.0835 29.9598 19.9218 29.6299 19.1622 29.0281C18.386 28.2454 17.8075 27.3468 17.4472 26.2932H17.4327L17.4472 26.2823C17.2102 25.5865 17.1868 24.848 17.1781 24.0804H11.8234Z"
                      fill="url(#paint0_radial_64_257)"/>
            </g>
            <g filter="url(#filter1_f_64_257)">
                <path d="M24.2557 11.9127C23.7021 13.8575 23.9137 15.7479 24.2557 16.8478C24.8949 16.8483 25.5107 16.9245 26.0946 17.0763C27.4333 17.4243 28.38 18.1098 28.9603 18.6519L32.5508 15.1358C30.4238 13.1856 27.864 11.9158 24.2557 11.9127Z"
                      fill="url(#paint1_radial_64_257)"/>
            </g>
            <g filter="url(#filter2_f_64_257)">
                <path d="M24.2437 11.8973C21.5283 11.8973 19.0215 12.7433 16.9671 14.1731C16.2044 14.704 15.5044 15.3172 14.8811 15.9992C14.7178 17.531 16.1034 19.4139 18.8473 19.3983C20.1787 17.8496 22.1477 16.8477 24.3392 16.8477C24.3412 16.8477 24.3432 16.8478 24.3452 16.8478L24.2557 11.8977C24.2516 11.8977 24.2477 11.8973 24.2437 11.8973Z"
                      fill="url(#paint2_radial_64_257)"/>
            </g>
            <g filter="url(#filter3_f_64_257)">
                <path d="M33.2057 24.6348L30.7821 26.2998C30.6758 26.9527 30.4368 27.595 30.0871 28.1807C29.6864 28.8517 29.1911 29.3626 28.6834 29.7517C27.1657 30.9147 25.3973 31.1541 24.1662 31.1551C22.8937 33.3223 22.6707 34.4078 24.2557 36.157C26.217 36.1555 27.9558 35.8015 29.4895 35.1385C30.5981 34.6592 31.5804 34.0341 32.4697 33.2308C33.6448 32.1692 34.5653 30.8562 35.1934 29.3456C35.8216 27.8349 36.1575 26.1268 36.1575 24.2747L33.2057 24.6348Z"
                      fill="url(#paint3_radial_64_257)"/>
            </g>
            <g filter="url(#filter4_f_64_257)">
                <path d="M24.0767 21.5984V26.5626H35.7372C35.8398 25.8828 36.1789 25.003 36.1789 24.2747C36.1789 23.4236 36.0935 22.384 35.9485 21.5984H24.0767Z"
                      fill="#3086FF"/>
            </g>
            <g filter="url(#filter5_f_64_257)">
                <path d="M14.9367 15.8239C14.2172 16.6112 13.6024 17.4925 13.115 18.4455C12.2788 20.0754 11.8209 22.0569 11.8209 23.999C11.8209 24.0263 11.8232 24.0531 11.8234 24.0804C12.1937 24.7905 16.9389 24.6545 17.1781 24.0804C17.1778 24.0536 17.1748 24.0275 17.1748 24.0007C17.1748 23.2041 17.3093 22.617 17.5546 21.8969C17.8572 21.0086 18.331 20.1906 18.9369 19.4859C19.0742 19.3105 19.4405 18.9336 19.5474 18.7075C19.5881 18.6214 19.4735 18.573 19.4671 18.5427C19.4599 18.5088 19.3062 18.5361 19.2718 18.5108C19.1625 18.4306 18.946 18.3888 18.8145 18.3515C18.5336 18.272 18.0679 18.0965 17.8093 17.9147C16.9917 17.3398 15.7159 16.6531 14.9367 15.8239Z"
                      fill="url(#paint4_radial_64_257)"/>
            </g>
            <g filter="url(#filter6_f_64_257)">
                <path d="M17.8268 18.5462C19.7226 19.6945 20.2678 17.9665 21.5283 17.4258L19.3357 12.8789C18.5291 13.2179 17.7671 13.6391 17.06 14.1312C16.0041 14.8661 15.0717 15.7629 14.3014 16.7835L17.8268 18.5462Z"
                      fill="url(#paint5_radial_64_257)"/>
            </g>
            <g filter="url(#filter7_f_64_257)">
                <path d="M18.5984 30.1468C16.0536 31.0655 15.6552 31.0985 15.4209 32.6756C15.8685 33.1125 16.3495 33.5165 16.8606 33.8829C18.2321 34.866 20.8701 36.1753 24.244 36.1753C24.2479 36.1753 24.2517 36.175 24.2557 36.175V31.0675C24.2531 31.0675 24.2502 31.0677 24.2476 31.0677C22.9842 31.0677 21.9747 30.7358 20.9395 30.1588C20.6843 30.0165 20.2213 30.3986 19.9859 30.2278C19.6613 29.9922 18.88 30.4307 18.5984 30.1468Z"
                      fill="url(#paint6_radial_64_257)"/>
            </g>
            <g opacity="0.5" filter="url(#filter8_f_64_257)">
                <path d="M22.7653 30.9066V36.0865C23.2373 36.1417 23.7286 36.1753 24.244 36.1753C24.7606 36.1753 25.2604 36.1488 25.7461 36.1V30.9415C25.2018 31.0346 24.6892 31.0677 24.2476 31.0677C23.7391 31.0677 23.2445 31.0085 22.7653 30.9066Z"
                      fill="url(#paint7_linear_64_257)"/>
            </g>
        </g>
    </g>
    <defs>
        <filter id="filter0_f_64_257" x="11.3533" y="23.6104" width="10.26" height="9.40134"
                filterUnits="userSpaceOnUse" color-interpolation-filters="sRGB">
            <feFlood flood-opacity="0" result="BackgroundImageFix"/>
            <feBlend mode="normal" in="SourceGraphic" in2="BackgroundImageFix" result="shape"/>
            <feGaussianBlur stdDeviation="0.23504" result="effect1_foregroundBlur_64_257"/>
        </filter>
        <filter id="filter1_f_64_257" x="23.4452" y="11.4426" width="9.57566" height="7.67936"
                filterUnits="userSpaceOnUse" color-interpolation-filters="sRGB">
            <feFlood flood-opacity="0" result="BackgroundImageFix"/>
            <feBlend mode="normal" in="SourceGraphic" in2="BackgroundImageFix" result="shape"/>
            <feGaussianBlur stdDeviation="0.23504" result="effect1_foregroundBlur_64_257"/>
        </filter>
        <filter id="filter2_f_64_257" x="14.3981" y="11.4273" width="10.4172" height="8.4412"
                filterUnits="userSpaceOnUse" color-interpolation-filters="sRGB">
            <feFlood flood-opacity="0" result="BackgroundImageFix"/>
            <feBlend mode="normal" in="SourceGraphic" in2="BackgroundImageFix" result="shape"/>
            <feGaussianBlur stdDeviation="0.23504" result="effect1_foregroundBlur_64_257"/>
        </filter>
        <filter id="filter3_f_64_257" x="22.6687" y="23.8046" width="13.9588" height="12.8224"
                filterUnits="userSpaceOnUse" color-interpolation-filters="sRGB">
            <feFlood flood-opacity="0" result="BackgroundImageFix"/>
            <feBlend mode="normal" in="SourceGraphic" in2="BackgroundImageFix" result="shape"/>
            <feGaussianBlur stdDeviation="0.23504" result="effect1_foregroundBlur_64_257"/>
        </filter>
        <filter id="filter4_f_64_257" x="23.6066" y="21.1284" width="13.0425" height="5.90433"
                filterUnits="userSpaceOnUse" color-interpolation-filters="sRGB">
            <feFlood flood-opacity="0" result="BackgroundImageFix"/>
            <feBlend mode="normal" in="SourceGraphic" in2="BackgroundImageFix" result="shape"/>
            <feGaussianBlur stdDeviation="0.23504" result="effect1_foregroundBlur_64_257"/>
        </filter>
        <filter id="filter5_f_64_257" x="11.3508" y="15.3538" width="8.67539" height="9.6796"
                filterUnits="userSpaceOnUse" color-interpolation-filters="sRGB">
            <feFlood flood-opacity="0" result="BackgroundImageFix"/>
            <feBlend mode="normal" in="SourceGraphic" in2="BackgroundImageFix" result="shape"/>
            <feGaussianBlur stdDeviation="0.23504" result="effect1_foregroundBlur_64_257"/>
        </filter>
        <filter id="filter6_f_64_257" x="10.9965" y="9.57406" width="13.8366" height="12.6629"
                filterUnits="userSpaceOnUse" color-interpolation-filters="sRGB">
            <feFlood flood-opacity="0" result="BackgroundImageFix"/>
            <feBlend mode="normal" in="SourceGraphic" in2="BackgroundImageFix" result="shape"/>
            <feGaussianBlur stdDeviation="1.65243" result="effect1_foregroundBlur_64_257"/>
        </filter>
        <filter id="filter7_f_64_257" x="14.9508" y="29.6563" width="9.77488" height="6.98911"
                filterUnits="userSpaceOnUse" color-interpolation-filters="sRGB">
            <feFlood flood-opacity="0" result="BackgroundImageFix"/>
            <feBlend mode="normal" in="SourceGraphic" in2="BackgroundImageFix" result="shape"/>
            <feGaussianBlur stdDeviation="0.23504" result="effect1_foregroundBlur_64_257"/>
        </filter>
        <filter id="filter8_f_64_257" x="22.2952" y="30.4365" width="3.92099" height="6.20884"
                filterUnits="userSpaceOnUse" color-interpolation-filters="sRGB">
            <feFlood flood-opacity="0" result="BackgroundImageFix"/>
            <feBlend mode="normal" in="SourceGraphic" in2="BackgroundImageFix" result="shape"/>
            <feGaussianBlur stdDeviation="0.23504" result="effect1_foregroundBlur_64_257"/>
        </filter>
        <radialGradient id="paint0_radial_64_257" cx="0" cy="0" r="1" gradientUnits="userSpaceOnUse"
                        gradientTransform="translate(21.031 32.3615) rotate(-92.3894) scale(11.9623 17.9454)">
            <stop offset="0.141612" stop-color="#1ABD4D"/>
            <stop offset="0.247515" stop-color="#6EC30D"/>
            <stop offset="0.311547" stop-color="#8AC502"/>
            <stop offset="0.366013" stop-color="#A2C600"/>
            <stop offset="0.445673" stop-color="#C8C903"/>
            <stop offset="0.540305" stop-color="#EBCB03"/>
            <stop offset="0.615636" stop-color="#F7CD07"/>
            <stop offset="0.699345" stop-color="#FDCD04"/>
            <stop offset="0.771242" stop-color="#FDCE05"/>
            <stop offset="0.860566" stop-color="#FFCE0A"/>
        </radialGradient>
        <radialGradient id="paint1_radial_64_257" cx="0" cy="0" r="1" gradientUnits="userSpaceOnUse"
                        gradientTransform="translate(32.2149 18.3975) scale(8.46967 10.7093)">
            <stop offset="0.408458" stop-color="#FB4E5A"/>
            <stop offset="1" stop-color="#FF4540"/>
        </radialGradient>
        <radialGradient id="paint2_radial_64_257" cx="0" cy="0" r="1" gradientUnits="userSpaceOnUse"
                        gradientTransform="translate(27.5896 10.3471) rotate(151.53) scale(13.4991 18.1109)">
            <stop offset="0.231273" stop-color="#FF4541"/>
            <stop offset="0.311547" stop-color="#FF4540"/>
            <stop offset="0.457516" stop-color="#FF4640"/>
            <stop offset="0.540305" stop-color="#FF473F"/>
            <stop offset="0.699346" stop-color="#FF5138"/>
            <stop offset="0.771242" stop-color="#FF5B33"/>
            <stop offset="0.860566" stop-color="#FF6C29"/>
            <stop offset="1" stop-color="#FF8C18"/>
        </radialGradient>
        <radialGradient id="paint3_radial_64_257" cx="0" cy="0" r="1" gradientUnits="userSpaceOnUse"
                        gradientTransform="translate(24.4321 34.6036) rotate(-128.041) scale(34.9233 12.9595)">
            <stop offset="0.131546" stop-color="#0CBA65"/>
            <stop offset="0.209784" stop-color="#0BB86D"/>
            <stop offset="0.297297" stop-color="#09B479"/>
            <stop offset="0.396257" stop-color="#08AD93"/>
            <stop offset="0.477124" stop-color="#0AA6A9"/>
            <stop offset="0.568425" stop-color="#0D9CC6"/>
            <stop offset="0.667385" stop-color="#1893DD"/>
            <stop offset="0.768727" stop-color="#258BF1"/>
            <stop offset="0.858506" stop-color="#3086FF"/>
        </radialGradient>
        <radialGradient id="paint4_radial_64_257" cx="0" cy="0" r="1" gradientUnits="userSpaceOnUse"
                        gradientTransform="translate(23.204 14.164) rotate(96.7579) scale(12.9421 18.2666)">
            <stop offset="0.366013" stop-color="#FF4E3A"/>
            <stop offset="0.457516" stop-color="#FF8A1B"/>
            <stop offset="0.540305" stop-color="#FFA312"/>
            <stop offset="0.615636" stop-color="#FFB60C"/>
            <stop offset="0.771242" stop-color="#FFCD0A"/>
            <stop offset="0.860566" stop-color="#FECF0A"/>
            <stop offset="0.915033" stop-color="#FECF08"/>
            <stop offset="1" stop-color="#FDCD01"/>
        </radialGradient>
        <radialGradient id="paint5_radial_64_257" cx="0" cy="0" r="1" gradientUnits="userSpaceOnUse"
                        gradientTransform="translate(21.0623 14.0308) rotate(132.723) scale(6.48852 18.336)">
            <stop offset="0.315904" stop-color="#FF4C3C"/>
            <stop offset="0.603818" stop-color="#FF692C"/>
            <stop offset="0.726837" stop-color="#FF7825"/>
            <stop offset="0.884534" stop-color="#FF8D1B"/>
            <stop offset="1" stop-color="#FF9F13"/>
        </radialGradient>
        <radialGradient id="paint6_radial_64_257" cx="0" cy="0" r="1" gradientUnits="userSpaceOnUse"
                        gradientTransform="translate(27.5896 37.6526) rotate(-151.53) scale(13.4991 18.1109)">
            <stop offset="0.231273" stop-color="#0FBC5F"/>
            <stop offset="0.311547" stop-color="#0FBC5F"/>
            <stop offset="0.366013" stop-color="#0FBC5E"/>
            <stop offset="0.457516" stop-color="#0FBC5D"/>
            <stop offset="0.540305" stop-color="#12BC58"/>
            <stop offset="0.699346" stop-color="#28BF3C"/>
            <stop offset="0.771242" stop-color="#38C02B"/>
            <stop offset="0.860566" stop-color="#52C218"/>
            <stop offset="0.915033" stop-color="#67C30F"/>
            <stop offset="1" stop-color="#86C504"/>
        </radialGradient>
        <linearGradient id="paint7_linear_64_257" x1="22.7653" y1="33.541" x2="25.7461" y2="33.541"
                        gradientUnits="userSpaceOnUse">
            <stop stop-color="#0FBC5C"/>
            <stop offset="1" stop-color="#0CBA65"/>
        </linearGradient>
        <clipPath id="clip0_64_257">
            <rect width="24" height="24" fill="white" transform="translate(12 12)"/>
        </clipPath>
    </defs>
</svg>
