<svg width="24" height="24" viewBox="0 0 24 24" fill="none" xmlns="http://www.w3.org/2000/svg">
    <rect width="24" height="24" rx="8" fill="#6C63FF"/>
    <g clip-path="url(#clip0_191_639)">
        <path d="M16 15C16.55 15 17 14.55 17 14V9C17 8.45 16.55 8 16 8H8C7.45 8 7 8.45 7 9V14C7 14.55 7.445 15 8 15H6.5C6.225 15 6 15.225 6 15.5C6 15.775 6.225 16 6.5 16H17.5C17.775 16 18 15.775 18 15.5C18 15.225 17.775 15 17.5 15H16ZM12.5 13.235V12.14C11.11 12.14 10.195 12.565 9.5 13.5C9.78 12.165 10.555 10.835 12.5 10.565V9.5L14.305 11.18C14.41 11.28 14.41 11.445 14.305 11.545L12.5 13.235Z"
              fill="white"/>
    </g>
    <defs>
        <clipPath id="clip0_191_639">
            <rect width="12" height="12" fill="white" transform="translate(6 6)"/>
        </clipPath>
    </defs>
</svg>
