<svg width="48" height="48" viewBox="0 0 48 48" fill="none" xmlns="http://www.w3.org/2000/svg">
    <rect width="48" height="48" rx="8" fill="currentColor"/>
    <g clip-path="url(#clip0_191_900)">
        <path d="M22.3 19.7C21.91 20.09 21.91 20.71 22.3 21.1L24.2 23H15C14.45 23 14 23.45 14 24C14 24.55 14.45 25 15 25H24.2L22.3 26.9C21.91 27.29 21.91 27.91 22.3 28.3C22.69 28.69 23.31 28.69 23.7 28.3L27.29 24.71C27.68 24.32 27.68 23.69 27.29 23.3L23.7 19.7C23.31 19.31 22.69 19.31 22.3 19.7ZM32 31H25C24.45 31 24 31.45 24 32C24 32.55 24.45 33 25 33H32C33.1 33 34 32.1 34 31V17C34 15.9 33.1 15 32 15H25C24.45 15 24 15.45 24 16C24 16.55 24.45 17 25 17H32V31Z"
              fill="white"/>
    </g>
    <defs>
        <clipPath id="clip0_191_900">
            <rect width="24" height="24" fill="white" transform="translate(12 12)"/>
        </clipPath>
    </defs>
</svg>
