<svg width="24" height="25" viewBox="0 0 24 25" fill="none" xmlns="http://www.w3.org/2000/svg">
    <g clip-path="url(#clip0_185_919)">
        <path d="M11.99 2.5C6.47 2.5 2 6.98 2 12.5C2 18.02 6.47 22.5 11.99 22.5C17.52 22.5 22 18.02 22 12.5C22 6.98 17.52 2.5 11.99 2.5ZM15.22 17.89L12 15.95L8.78 17.89C8.4 18.12 7.93 17.78 8.03 17.35L8.88 13.69L6.05 11.24C5.72 10.95 5.9 10.4 6.34 10.36L10.08 10.04L11.54 6.59C11.71 6.18 12.29 6.18 12.46 6.59L13.92 10.03L17.66 10.35C18.1 10.39 18.28 10.94 17.94 11.23L15.11 13.68L15.96 17.35C16.06 17.78 15.6 18.12 15.22 17.89Z"
              fill="#6C63FF"/>
    </g>
    <defs>
        <clipPath id="clip0_185_919">
            <rect width="24" height="24" fill="white" transform="translate(0 0.5)"/>
        </clipPath>
    </defs>
</svg>
