<svg width="24" height="24" viewBox="0 0 24 24" fill="none" xmlns="http://www.w3.org/2000/svg">
    <rect width="24" height="24" rx="8" fill="currentColor"/>
    <g clip-path="url(#clip0_242_980)">
        <path d="M9 15.5C9 16.05 9.45 16.5 10 16.5H14C14.55 16.5 15 16.05 15 15.5V10.5C15 9.95 14.55 9.5 14 9.5H10C9.45 9.5 9 9.95 9 10.5V15.5ZM15 8H13.75L13.395 7.645C13.305 7.555 13.175 7.5 13.045 7.5H10.955C10.825 7.5 10.695 7.555 10.605 7.645L10.25 8H9C8.725 8 8.5 8.225 8.5 8.5C8.5 8.775 8.725 9 9 9H15C15.275 9 15.5 8.775 15.5 8.5C15.5 8.225 15.275 8 15 8Z"
              fill="white"/>
    </g>
    <defs>
        <clipPath id="clip0_242_980">
            <rect width="12" height="12" fill="white" transform="translate(6 6)"/>
        </clipPath>
    </defs>
</svg>
