<svg width="55" height="55" viewBox="0 0 55 55" fill="none" xmlns="http://www.w3.org/2000/svg">
<rect width="55" height="55" rx="8" fill="currentColor"/>
<g clip-path="url(#clip0_286_553)">
<path d="M18.25 38.2917C18.25 39.9875 19.6375 41.375 21.3333 41.375H33.6666C35.3625 41.375 36.75 39.9875 36.75 38.2917V22.875C36.75 21.1792 35.3625 19.7917 33.6666 19.7917H21.3333C19.6375 19.7917 18.25 21.1792 18.25 22.875V38.2917ZM36.75 15.1667H32.8958L31.8012 14.0721C31.5237 13.7946 31.1229 13.625 30.7221 13.625H24.2779C23.8771 13.625 23.4762 13.7946 23.1987 14.0721L22.1041 15.1667H18.25C17.4021 15.1667 16.7083 15.8604 16.7083 16.7083C16.7083 17.5562 17.4021 18.25 18.25 18.25H36.75C37.5979 18.25 38.2916 17.5562 38.2916 16.7083C38.2916 15.8604 37.5979 15.1667 36.75 15.1667Z" fill="white"/>
</g>
<defs>
<clipPath id="clip0_286_553">
<rect width="37" height="37" fill="white" transform="translate(9 9)"/>
</clipPath>
</defs>
</svg>
