<svg width="24" height="24" viewBox="0 0 24 24" fill="none" xmlns="http://www.w3.org/2000/svg">
    <rect width="24" height="24" rx="8" fill="currentColor"/>
    <g clip-path="url(#clip0_242_976)">
        <path d="M12 8C9.5 8 7.365 9.555 6.5 11.75C7.365 13.945 9.5 15.5 12 15.5C14.5 15.5 16.635 13.945 17.5 11.75C16.635 9.555 14.5 8 12 8ZM12 14.25C10.62 14.25 9.5 13.13 9.5 11.75C9.5 10.37 10.62 9.25 12 9.25C13.38 9.25 14.5 10.37 14.5 11.75C14.5 13.13 13.38 14.25 12 14.25ZM12 10.25C11.17 10.25 10.5 10.92 10.5 11.75C10.5 12.58 11.17 13.25 12 13.25C12.83 13.25 13.5 12.58 13.5 11.75C13.5 10.92 12.83 10.25 12 10.25Z"
              fill="white"/>
    </g>
    <defs>
        <clipPath id="clip0_242_976">
            <rect width="12" height="12" fill="white" transform="translate(6 6)"/>
        </clipPath>
    </defs>
</svg>
