<svg width="24" height="24" viewBox="0 0 24 24" fill="none" xmlns="http://www.w3.org/2000/svg">
<g id="mic_24px">
<path id="icon/av/mic_24px" fill-rule="evenodd" clip-rule="evenodd" d="M14.999 11.5C14.999 13.16 13.6589 14.5 11.999 14.5C10.339 14.5 8.99898 13.16 8.99898 11.5V5.5C8.99898 3.84 10.339 2.5 11.999 2.5C13.6589 2.5 14.999 3.84 14.999 5.5V11.5ZM16.929 12.35C17.009 11.86 17.419 11.5 17.9089 11.5C18.5189 11.5 19.009 12.04 18.9089 12.64C18.419 15.64 16.0189 17.99 12.999 18.42V20.5C12.999 21.05 12.549 21.5 11.999 21.5C11.449 21.5 10.999 21.05 10.999 20.5V18.42C7.97896 17.99 5.57893 15.64 5.08894 12.64C4.99898 12.04 5.47896 11.5 6.08894 11.5C6.57899 11.5 6.98897 11.86 7.06898 12.35C7.47896 14.7 9.52894 16.5 11.999 16.5C14.4689 16.5 16.5189 14.7 16.929 12.35Z" fill="currentColor" fill-opacity="0.54"/>
</g>
</svg>
