<svg width="24" height="24" viewBox="0 0 24 24" fill="none" xmlns="http://www.w3.org/2000/svg">
<g id="mic_off_24px">
<path id="icon/av/mic_off_24px" fill-rule="evenodd" clip-rule="evenodd" d="M14.92 11.1V5.5C14.92 3.84 13.58 2.5 11.92 2.5C10.38 2.5 9.12999 3.66 8.96001 5.15L14.92 11.1ZM18 11.5C17.59 11.5 17.23 11.8 17.17 12.21C17.12 12.53 17.05 12.85 16.95 13.14L18.22 14.41C18.52 13.81 18.74 13.16 18.85 12.47C18.92 11.96 18.52 11.5 18 11.5ZM3.62999 5.47C3.24004 5.08 3.24004 4.45 3.62999 4.06C3.81682 3.87276 4.07048 3.76752 4.33501 3.76752C4.59953 3.76752 4.8532 3.87276 5.04002 4.06L20.37 19.4C20.76 19.79 20.76 20.42 20.37 20.81C19.98 21.2 19.35 21.2 18.96 20.81L15.47 17.32C14.69 17.77 13.83 18.09 12.92 18.22V20.5C12.92 21.05 12.47 21.5 11.92 21.5C11.37 21.5 10.92 21.05 10.92 20.5V18.22C7.95 17.77 5.45 15.43 4.99004 12.47C4.92003 11.96 5.31999 11.5 5.84001 11.5C6.24998 11.5 6.61003 11.8 6.67003 12.21C7.04002 14.83 9.37999 16.6 11.92 16.6C12.73 16.6 13.52 16.41 14.23 16.08L12.57 14.42C11.96 14.55 11.3 14.54 10.55 14.11C9.52 13.52 8.92003 12.39 8.92003 11.2V10.77L3.62999 5.47Z" fill="currentColor" fill-opacity="0.54"/>
</g>
</svg>
