<svg width="42" height="42" viewBox="0 0 42 42" fill="none" xmlns="http://www.w3.org/2000/svg">
    <rect width="42" height="42" rx="8" fill="#6C63FF"/>
    <g clip-path="url(#clip0_125_1094)">
        <path d="M28 12H23.82C23.4 10.84 22.3 10 21 10C19.7 10 18.6 10.84 18.18 12H14C12.9 12 12 12.9 12 14V28C12 29.1 12.9 30 14 30H28C29.1 30 30 29.1 30 28V14C30 12.9 29.1 12 28 12ZM21 12C21.55 12 22 12.45 22 13C22 13.55 21.55 14 21 14C20.45 14 20 13.55 20 13C20 12.45 20.45 12 21 12ZM22 26H17C16.45 26 16 25.55 16 25C16 24.45 16.45 24 17 24H22C22.55 24 23 24.45 23 25C23 25.55 22.55 26 22 26ZM25 22H17C16.45 22 16 21.55 16 21C16 20.45 16.45 20 17 20H25C25.55 20 26 20.45 26 21C26 21.55 25.55 22 25 22ZM25 18H17C16.45 18 16 17.55 16 17C16 16.45 16.45 16 17 16H25C25.55 16 26 16.45 26 17C26 17.55 25.55 18 25 18Z"
              fill="white"/>
    </g>
    <defs>
        <clipPath id="clip0_125_1094">
            <rect width="24" height="24" fill="white" transform="translate(9 9)"/>
        </clipPath>
    </defs>
</svg>
